<svg width="6" height="6" viewBox="0 0 6 6" fill="none" xmlns="http://www.w3.org/2000/svg">
<path d="M2.28578 0.285645C2.28578 0.671359 1.88571 0.814288 1.60007 0.514288C1.38578 0.300002 1.32857 0.328501 0.828641 0.814286C0.328605 1.29996 0.299999 1.35707 0.514284 1.59997C0.800034 1.89997 0.671463 2.28568 0.285749 2.28568C0.0428563 2.28568 0 2.37139 0 3C0 3.6285 0.0428563 3.71422 0.285749 3.71422C0.657213 3.71422 0.800034 4.07143 0.557141 4.37143C0.414319 4.55711 0.457178 4.67143 0.899999 5.11425C1.41429 5.62854 1.41429 5.62854 1.71429 5.35714C1.97143 5.1285 2.04289 5.11425 2.14286 5.28568C2.22857 5.4 2.28578 5.61429 2.28578 5.74286C2.28578 5.95714 2.41436 6 3 6C3.65721 6 3.71432 5.97139 3.71432 5.65714C3.71432 5.17136 3.95721 5.05714 4.30007 5.37139C4.57146 5.61429 4.60007 5.61429 5.1 5.1C5.61428 4.59997 5.61428 4.57136 5.3715 4.29996C5.05714 3.95711 5.17146 3.71422 5.65714 3.71422C5.9715 3.71422 6 3.65711 6 3C6 2.41425 5.95714 2.28568 5.74285 2.28568C5.28578 2.28568 5.11435 1.98568 5.38575 1.68568C5.61428 1.42854 5.60004 1.38568 5.11436 0.899999C4.67143 0.457071 4.55721 0.414216 4.37143 0.557144C4.07143 0.79993 3.71432 0.657109 3.71432 0.285645C3.71432 0.0428588 3.62861 0 3 0C2.3715 0 2.28578 0.0428588 2.28578 0.285645ZM3.48579 0.657107C3.5715 0.999964 3.62861 1.02857 4.14289 0.957109C4.57146 0.900002 4.75714 0.942859 4.94293 1.15714C5.1286 1.37143 5.14286 1.47139 5.01428 1.62857C4.75714 1.92857 4.95718 2.41425 5.3715 2.51421C5.85718 2.64279 5.87143 3.35711 5.3715 3.48568C4.95718 3.58565 4.81436 3.9285 5.01428 4.31422C5.14286 4.55711 5.11435 4.65707 4.88571 4.89996C4.62857 5.14286 4.55721 5.15711 4.35718 4.99993C4.05718 4.74279 3.42857 5.02854 3.42857 5.4285C3.42857 5.88568 2.62864 5.82857 2.51432 5.37139C2.41436 4.95707 1.92857 4.75714 1.62857 5.01429C1.4715 5.14286 1.37143 5.1285 1.15714 4.94282C0.942856 4.75714 0.899999 4.57136 0.957213 4.14279C1.02857 3.6285 1.00007 3.5714 0.657215 3.48568C0.357215 3.41422 0.285749 3.31425 0.285749 2.98564C0.285749 2.75711 0.357214 2.57143 0.428571 2.57143C0.514286 2.57143 0.700071 2.44286 0.857143 2.28568C1.10004 2.04279 1.11428 1.94282 0.971463 1.64282C0.842891 1.34282 0.842891 1.2285 1.04293 1.04282C1.2286 0.857143 1.34293 0.842787 1.61432 0.957109C1.88571 1.08568 2.02864 1.07143 2.27143 0.914252C2.42861 0.799931 2.57143 0.600002 2.57143 0.485681C2.57143 0.357109 2.71436 0.285645 2.98575 0.285645C3.31436 0.285645 3.41432 0.357107 3.48579 0.657107Z" fill="#F74715"/>
<path d="M2.4545 1.09185C0.289107 1.72692 0.636226 5 2.8677 5C4.20659 5 5 4.26722 5 3.02956C5 1.92233 4.42155 1.27089 3.18184 1.01039C3.04957 0.977778 2.71893 1.02663 2.4545 1.09185ZM4.1901 1.88972C4.86784 2.57365 4.86784 3.48559 4.157 4.16952C3.46276 4.86969 2.5372 4.86969 1.84296 4.202C0.784992 3.14363 1.51233 1.41745 3.01647 1.41745C3.56194 1.41745 3.80988 1.51515 4.1901 1.88972Z" fill="#F74715"/>
</svg>
