<svg width="476" height="476" viewBox="0 0 476 476" fill="none" xmlns="http://www.w3.org/2000/svg">
<path d="M398.5 212.546C398.553 216.555 439.239 221.179 396.5 217.9C392.19 221.072 346.934 215.563 341.717 214.797C338.516 214.106 335.328 213.351 332.153 212.546C330.799 212.206 330.799 212.206 329.418 211.86C327.481 211.373 325.545 210.883 323.609 210.392C320.537 209.612 317.462 208.844 314.386 208.078C306.255 206.055 298.124 204.027 290.003 201.967C268.989 196.655 248.484 192.484 226.882 190.612C221.724 190.144 216.588 189.518 211.447 188.888C205.701 188.207 199.954 187.542 194.2 186.927C193.157 186.815 192.114 186.703 191.039 186.587C188.909 186.365 186.777 186.152 184.645 185.949C179.687 185.464 174.985 184.84 170.105 183.775C152.095 180.201 135.975 185.64 118.622 190.516C109.343 193.121 99.9984 195.417 90.6317 197.682C88.2743 198.263 88.2743 198.263 85.8693 198.855C77.6723 200.868 69.4639 202.808 61.2287 204.659C58.733 205.226 58.733 205.226 56.1869 205.805C53.0059 206.525 49.8217 207.231 46.6341 207.921C45.2222 208.241 43.8103 208.562 42.3556 208.893C41.1097 209.166 39.8639 209.44 38.5803 209.723C35.2083 210.605 35.2083 210.605 33.7348 214.843C42.7168 224.98 42.7168 224.98 54.9271 229.598C66.2456 228.564 77.2864 225.483 88.2724 222.707C93.2545 221.457 98.2364 220.213 103.231 219.015C105.94 218.336 108.637 217.595 111.292 216.728C124.648 212.77 138.565 216.081 151.964 218.486C153.31 218.722 154.656 218.959 156.043 219.202C179.299 223.475 193.187 230.271 208.661 248.725C213.163 253.799 218.532 257.269 224.131 261.051C228.016 263.886 231.291 266.689 234.451 270.33C235.068 274.369 234.299 277.449 233.55 281.469C232.527 286.466 232.527 286.466 232.469 291.928C231.02 311.853 218.474 323.411 204.996 336.798C194.832 346.945 186.745 356.207 185.776 371.196C186.444 371.848 187.113 372.501 187.802 373.173C207.541 364.987 222.795 355.801 237.55 340.291C240.393 337.338 243.316 334.49 246.27 331.648C258.382 319.835 268.549 307.477 277.889 293.342C286.071 281.028 286.071 281.028 291.556 278.599C297.774 279.819 303.069 282.563 308.646 285.515C313.205 287.926 317.754 290.303 322.405 292.533C335.5 300.9 396.549 308.222 401 315.9C398.921 319.435 408.828 324.855 406 328.4C400.622 329.366 326.989 313.027 322.24 310.619C320.77 309.878 319.3 309.138 317.785 308.375C316.26 307.592 314.735 306.808 313.164 306.001C311.624 305.225 310.084 304.45 308.497 303.651C297.122 297.882 297.122 297.882 294.779 295.594C294.338 296.294 293.897 296.993 293.443 297.714C284.405 311.896 274.952 324.793 263.07 336.728C261.851 337.953 260.632 339.178 259.376 340.441C256.905 342.915 254.43 345.386 251.951 347.852C248.909 350.925 245.973 354.062 243.059 357.255C227.745 373.505 201.756 389.77 179.053 392.331C170.774 382.845 170.233 373.859 170.984 361.701C172.924 347.886 180.491 337.696 190.183 328.069C210.759 307.379 210.759 307.379 217.573 279.573C218.224 278.903 218.875 278.233 219.546 277.542C218.878 276.89 218.209 276.237 217.521 275.565C216.762 276 216.003 276.435 215.222 276.883C207.962 280.992 200.656 284.639 192.997 287.946C186.647 291.843 184.035 298.405 180.862 304.891C174.357 318.067 166.457 331.213 152.124 336.827C141.766 339.699 131.571 339.159 121.318 335.964C117.221 333.324 117.221 333.324 115.24 330.03C116.288 323.392 118.832 317.309 121.351 311.119C121.765 310.09 122.178 309.061 122.604 308.002C123.921 304.727 125.247 301.456 126.572 298.185C127.448 296.011 128.323 293.837 129.197 291.663C130.876 287.492 132.567 283.325 134.266 279.162C135.607 275.865 136.894 272.567 138.139 269.231C141.947 259.164 146.179 253.054 156.198 248.341C158.335 247.446 160.48 246.572 162.632 245.719C163.735 245.263 164.838 244.806 165.973 244.336C168.665 243.225 171.367 242.139 174.071 241.058C170.129 240.195 166.186 239.376 162.227 238.599C157.533 237.655 152.935 236.476 148.308 235.243C126.037 229.714 109.908 232.006 88.2376 238.939C59.256 247.965 59.2558 247.965 45.1131 243.759C43.675 243.342 43.675 243.342 42.2077 242.916C31.6517 239.064 23.9667 231.104 19.1919 221.048C16.7911 214.903 15.4173 209.673 15.5812 203.056C18.4603 198.588 20.7648 197.905 25.9113 196.385C28.158 195.906 30.4087 195.446 32.6623 195.001C35.1948 194.462 37.7266 193.919 40.2577 193.374C42.2586 192.947 42.2586 192.947 44.2999 192.511C51.2984 190.964 58.2392 189.194 65.1863 187.431C77.2803 184.382 89.389 181.41 101.525 178.532C108.477 176.875 115.41 175.159 122.331 173.372C123.854 172.981 125.378 172.59 126.948 172.187C129.884 171.431 132.818 170.666 135.749 169.891C155.767 164.754 176.344 168.356 196.558 171.074C204.217 172.101 211.876 173.013 219.562 173.81C221.624 174.031 223.687 174.252 225.75 174.472C229.059 174.824 232.368 175.162 235.681 175.474C253.133 177.118 269.54 180.312 286.442 184.945C296.401 187.669 306.436 190.038 316.487 192.391C318.138 192.778 319.788 193.165 321.488 193.564C323.077 193.937 324.665 194.309 326.302 194.693C327.834 195.057 329.367 195.421 330.946 195.797C333.984 196.495 337.033 197.145 340.091 197.75C342.243 198.192 342.243 198.192 344.439 198.643C345.71 198.886 346.98 199.129 348.29 199.38C352.404 200.975 494.391 220.747 398.5 212.546Z" fill="#060606"/>
<path d="M187.005 251.661C192.019 256.556 197.033 261.451 202.199 266.495C196.112 270.975 190.864 273.747 184.053 276.717C173.792 282.533 169.964 292.179 165.097 302.371C160.603 311.437 155.749 319.026 146.386 323.418C142.057 324.394 138.386 324.851 133.963 324.521C133.295 323.868 132.626 323.216 131.938 322.543C134.755 315.215 137.61 307.904 140.5 300.604C141.476 298.123 142.442 295.637 143.398 293.147C144.779 289.555 146.196 285.979 147.622 282.404C148.037 281.3 148.452 280.196 148.879 279.058C152.596 269.909 157.941 264.939 166.456 260.124C167.404 259.734 168.352 259.343 169.328 258.941C170.373 258.501 171.418 258.061 172.494 257.607C174.077 256.97 174.077 256.97 175.692 256.32C176.786 255.864 177.879 255.408 179.006 254.938C181.666 253.83 184.335 252.744 187.005 251.661Z" fill="#FFF7F1"/>
</svg>
