<svg width="60" height="60" viewBox="0 0 60 60" fill="none" xmlns="http://www.w3.org/2000/svg">
<circle cx="30" cy="30" r="30" fill="black"/>
<path d="M38.3333 13.3333H21.6666C17.0643 13.3333 13.3333 17.0643 13.3333 21.6666V38.3333C13.3333 42.9357 17.0643 46.6666 21.6666 46.6666H38.3333C42.9357 46.6666 46.6666 42.9357 46.6666 38.3333V21.6666C46.6666 17.0643 42.9357 13.3333 38.3333 13.3333Z" stroke="white" stroke-width="2" stroke-linecap="round" stroke-linejoin="round"/>
<path d="M36.6667 28.95C36.8724 30.3371 36.6355 31.7537 35.9896 32.9984C35.3438 34.243 34.3219 35.2524 33.0694 35.8828C31.8169 36.5132 30.3974 36.7327 29.013 36.5099C27.6286 36.2871 26.3496 35.6335 25.3581 34.6419C24.3665 33.6504 23.7129 32.3715 23.4901 30.987C23.2674 29.6026 23.4868 28.1832 24.1172 26.9306C24.7477 25.6781 25.757 24.6562 27.0017 24.0104C28.2463 23.3646 29.6629 23.1277 31.05 23.3333C32.4649 23.5432 33.7748 24.2025 34.7862 25.2139C35.7976 26.2253 36.4569 27.5351 36.6667 28.95Z" stroke="white" stroke-width="2" stroke-linecap="round" stroke-linejoin="round"/>
<path d="M39.1667 20.8333H39.1834" stroke="white" stroke-width="2" stroke-linecap="round" stroke-linejoin="round"/>
</svg>
