<svg width="220" height="147" viewBox="0 0 220 147" fill="none" xmlns="http://www.w3.org/2000/svg">
<path d="M113.77 6.97715C114.317 10.0751 114.329 13.1356 114.336 16.2761C114.35 17.1693 114.363 18.0624 114.377 18.9826C114.401 20.8659 114.417 22.7493 114.424 24.6327C114.437 27.5132 114.485 30.3918 114.536 33.2718C114.555 35.1044 114.573 36.937 114.588 38.7696C114.603 39.6292 114.617 40.4887 114.633 41.3743C114.627 49.1324 114.627 49.1324 111.536 52.2652C110.372 52.5139 109.209 52.7625 108.01 53.0187C105.191 51.1102 103.334 49.5468 102.516 46.1373C102.305 43.7003 102.257 41.3087 102.266 38.8624C102.253 37.971 102.24 37.0795 102.226 36.161C102.204 34.2806 102.195 32.4001 102.196 30.5196C102.196 27.6464 102.15 24.7764 102.098 21.9037C102.083 20.0733 102.07 18.243 102.059 16.4126C102.046 15.5567 102.032 14.7008 102.017 13.8189C102.048 8.91461 102.406 5.87233 105.927 2.13001C110.336 0.780907 111.712 3.35648 113.77 6.97715Z" fill="#0A0A0A"/>
<path d="M146.154 3.68428C148.496 6.97649 147.8 9.93391 147.373 13.754C145.383 34.1278 145.383 34.1278 153.533 52.0646C159.024 58.2132 165.342 63.5744 171.904 68.5411C172.775 68.067 173.645 67.5929 174.542 67.1044C177.761 65.5219 179.432 65.3427 182.959 65.6114C183.852 65.6662 184.746 65.721 185.666 65.7775C191.31 66.7565 195.316 70.9774 198.865 75.2586C202.326 81.5339 202.39 87.3249 200.439 94.1547C197.275 99.8088 192.934 102.691 187.083 105.139C181.712 106.584 176.59 105.584 171.652 103.196C166.31 99.0526 162.893 95.3 161.717 88.5392C161.351 84.248 161.657 81.0121 163.531 77.1371C162.752 76.5703 161.974 76.0035 161.171 75.4196C150.791 67.616 138.918 58.3208 136.376 44.9524C135.574 38.8011 135.448 32.696 135.551 26.5002C135.565 25.4773 135.578 24.4543 135.592 23.4003C135.659 20.462 135.78 17.5348 135.942 14.6003C135.989 13.7095 136.036 12.8186 136.085 11.9008C136.598 5.88924 136.598 5.88924 139.13 3.33527C142.035 2.19393 143.473 1.99793 146.154 3.68428Z" fill="#070707"/>
<path d="M80.6219 10.3382C81.1483 13.4638 81.1323 16.5488 81.1152 19.7128C81.1237 20.611 81.1322 21.5092 81.1409 22.4347C81.1634 25.2952 81.161 28.1552 81.1587 31.0158C81.1725 32.9511 81.1878 34.8864 81.2046 36.8217C81.3064 52.8566 81.3064 52.8566 74.7677 59.4832C74.1956 60.0685 73.6235 60.6537 73.0341 61.2567C71.2029 63.1287 69.3668 64.9957 67.5305 66.8626C66.2895 68.1295 65.0488 69.3967 63.8085 70.6642C60.7642 73.7737 57.7155 76.8788 54.6645 79.9817C55.3757 81.289 55.3757 81.289 56.1013 82.6228C58.6858 87.8743 57.7198 93.5186 56.241 99.0545C52.5365 105.159 47.7419 108.189 40.9137 109.863C35.322 110.174 31.1043 109.698 26.6298 106.104C22.0032 101.864 18.3042 98.3906 17.3344 92.0161C17.2706 85.3743 19.057 80.3144 23.4435 75.3091C27.5145 71.5406 31.3249 69.9497 36.849 69.6082C41.0317 69.7799 44.3861 69.9699 47.5011 73.0041C62.8944 60.9718 62.8944 60.9718 70.7623 43.8479C71.5177 34.689 70.8009 25.3445 69.562 16.2522C69.1369 12.6688 69.1651 10.7585 70.8775 7.53035C72.7794 5.49107 72.7794 5.49107 74.8924 4.84454C78.21 5.76506 78.9402 7.36634 80.6219 10.3382Z" fill="#060606"/>
<path d="M114.624 68.5863C115.069 71.8689 115.069 71.8689 115.061 75.5611C115.065 76.2133 115.068 76.8655 115.072 77.5375C115.079 79.6056 115.062 81.6727 115.044 83.7407C115.045 85.149 115.047 86.5574 115.051 87.9657C115.055 91.4049 115.042 94.8432 115.014 98.2822C115.954 98.7366 116.893 99.191 117.861 99.6592C123.544 104.275 128.559 108.924 129.397 116.48C129.374 122.596 128.049 126.989 123.893 131.535C118.683 136.227 114.218 138.143 107.182 137.942C100.556 137.529 97.0326 134.391 92.4317 129.813C89.6076 126.302 88.6858 122.887 88.4065 118.433C89.1012 112.133 90.7315 108.678 95.1145 104.201C95.8304 103.462 96.5463 102.724 97.2839 101.963C99.4778 99.9007 99.4778 99.9007 101.704 98.7232C103.986 97.1357 103.986 97.1357 104.071 94.1725C104.011 93.0345 103.952 91.8966 103.89 90.7241C103.844 89.48 103.798 88.2358 103.751 86.9539C103.682 85.6517 103.614 84.3495 103.543 83.0079C103.413 80.4421 103.298 77.8754 103.202 75.3081C103.141 74.1677 103.081 73.0274 103.018 71.8525C103.364 68.1721 104.369 66.4981 106.782 63.7392C111.188 62.391 112.505 65.0221 114.624 68.5863Z" fill="#060606"/>
<path d="M190.254 81.1478C191.746 84.3231 191.624 86.1931 190.566 89.5109C188.163 92.804 186.499 94.2407 182.646 95.5817C178.58 95.256 176.612 94.1126 173.573 91.4662C172.183 89.7524 172.183 89.7524 171.429 86.2265C172.234 81.9069 173.017 79.9704 176.258 76.9699C182.473 74.6767 186.527 75.6479 190.254 81.1478Z" fill="#F6F6F6"/>
<path d="M46.9705 86.4472C47.7453 90.8998 47.6399 92.6979 45.0242 96.4173C41.7683 98.8373 39.8418 99.2698 35.825 99.3226C32.4816 98.2567 30.9142 96.4265 28.6802 93.7591C27.9177 89.4769 28.2652 87.3456 30.18 83.4413C33.7281 80.0456 35.6792 80.174 40.5235 80.1673C43.9587 81.2625 45.0772 83.4641 46.9705 86.4472Z" fill="#F6F6F6"/>
<path d="M118.782 115.912C119.148 119.89 118.715 121.518 116.378 124.739C113.637 126.839 111.747 127.599 108.334 128.071C104.413 127.497 102.226 125.578 99.775 122.526C98.7633 119.534 98.7633 119.534 98.9843 116.172C100.413 113.301 102.098 111.101 104.548 109.027C111.886 107.114 115.047 109.772 118.782 115.912Z" fill="#F5F5F5"/>
</svg>
