<svg width="470" height="470" viewBox="0 0 470 470" fill="none" xmlns="http://www.w3.org/2000/svg">
<path d="M449.093 198.923C449.151 203.369 442.265 208.44 439.193 211.595C431.262 219.457 423.825 223.942 412.483 224.688C398.694 224.038 385.933 217.33 373.61 211.639C362.017 206.45 354.923 207.778 342.974 211.21C341.791 211.542 340.607 211.874 339.388 212.216C336.484 213.032 333.583 213.856 330.684 214.688C336.798 218.141 342.915 221.549 349.219 224.648C350.104 225.085 350.989 225.522 351.901 225.972C353.65 226.83 355.405 227.68 357.164 228.52C362.268 231.03 366.55 233.21 369.895 237.859C370.74 241.94 370.795 245.948 370.827 250.104C370.892 252.429 370.958 254.753 371.026 257.078C371.05 258.186 371.074 259.294 371.098 260.436C371.192 263.852 371.434 267.237 371.749 270.64C372.391 277.98 372.75 285.333 373.092 292.692C373.352 298.038 373.801 303.257 374.561 308.56C374.687 313.591 374.687 313.591 372.898 317.345C366.515 320.687 360.7 319.261 353.864 317.654C335.885 311.615 335.885 311.615 328.968 305.131C328.144 304.378 327.321 303.626 326.473 302.851C322.309 297.67 321.216 292 320.47 285.542C320.283 283.957 320.283 283.957 320.092 282.341C319.849 280.158 319.64 277.972 319.465 275.783C318.732 269.71 318.732 269.71 314.903 265.234C311.882 263.784 308.81 262.628 305.678 261.44C303.469 260.274 301.271 259.085 299.085 257.877C284.126 250.235 284.126 250.235 267.88 251.355C260.872 254.062 254.243 257.413 247.79 261.252C247.43 263.979 247.43 263.979 247.865 266.935C250.831 269.258 254.177 270.372 257.716 271.599C272.31 276.874 283.388 282.116 290.72 296.573C294.696 306.783 294.009 316.808 290.409 327.013C288.254 330.061 288.254 330.061 285.727 331.812C281.529 332.23 278.603 331.594 274.741 329.974C273.724 329.553 272.707 329.133 271.659 328.7C270.571 328.237 269.482 327.775 268.361 327.299C267.221 326.825 266.082 326.351 264.908 325.862C261.26 324.342 257.619 322.808 253.977 321.274C250.381 319.769 246.783 318.266 243.185 316.765C240.859 315.793 238.533 314.819 236.209 313.842C228.637 310.667 221.029 307.639 213.331 304.78C208.874 302.735 206.896 300.186 204.596 295.926C204.047 294.35 203.497 292.775 202.932 291.151C196.78 278.473 174.821 271.95 162.322 267.267C155.939 265.428 151.284 266.536 145.247 268.892C138.722 271.293 131.125 270.654 124.525 268.553C121.611 269.751 121.611 269.751 118.352 271.571C117.075 272.251 115.797 272.932 114.482 273.633C113.098 274.382 111.714 275.13 110.288 275.901C107.369 277.454 104.449 279.007 101.529 280.559C96.915 283.026 92.3036 285.498 87.6955 287.977C83.2581 290.359 78.811 292.723 74.3625 295.084C72.9882 295.831 71.6139 296.577 70.198 297.346C68.9059 298.03 67.6137 298.714 66.2825 299.418C65.1527 300.025 64.023 300.632 62.859 301.257C58.9602 302.775 56.0646 303.025 51.9066 302.666C49.4418 300.152 49.4418 300.152 48.0367 297.032C48.9232 292.283 48.9232 292.283 50.8948 290.539C51.7478 290.018 52.6009 289.496 53.4797 288.959C54.4208 288.381 55.362 287.804 56.3316 287.209C60.8399 284.613 65.4082 282.174 70.0471 279.819C71.518 279.064 71.518 279.064 73.0186 278.293C76.1111 276.706 79.2076 275.127 82.3044 273.548C84.4052 272.472 86.5057 271.395 88.606 270.318C92.4348 268.355 96.2649 266.395 100.097 264.439C102.829 263.044 105.558 261.645 108.284 260.239C107.589 259.65 106.894 259.061 106.177 258.454C96.3936 249.65 91.5593 240.062 89.9246 226.998C89.5368 218.219 90.374 209.649 94.2286 201.683C95.1556 200.733 96.0825 199.783 97.0375 198.804C95.7431 198.734 95.7431 198.734 94.4224 198.664C91.9107 198.53 89.3994 198.388 86.8884 198.241C84.2207 198.112 81.5497 198.036 78.8789 198.02C69.449 197.883 69.449 197.883 64.7202 194.727C62.7822 191.673 62.7822 191.673 63.6686 186.925C67.077 183.419 70.0477 182.8 74.7578 182.586C76.8744 182.574 78.9913 182.583 81.1078 182.61C82.2138 182.606 83.3199 182.602 84.4595 182.598C90.2963 182.602 96.0075 182.873 101.818 183.464C108.229 183.915 112.428 182.005 118.097 179.175C127.42 174.883 137.874 173.469 147.972 175.397C152.563 177.291 152.563 177.291 155.612 179.087C156.593 177.764 157.573 176.442 158.584 175.08C161.886 170.892 165.318 166.858 168.921 162.924C169.852 161.898 170.783 160.872 171.742 159.815C180.153 153.155 189.686 152.469 200.095 152.212C201.307 152.168 202.519 152.124 203.767 152.079C211.081 151.827 218.394 151.697 225.711 151.669C229.11 151.596 232.443 151.355 235.828 151.047C243.559 150.409 251.264 150.149 259.019 150.018C260.331 149.981 261.643 149.944 262.995 149.906C269.95 149.789 276.005 149.761 282.423 152.79C284.249 154.766 286.014 156.799 287.722 158.879C291.399 162.07 294.059 163.928 299.017 164.079C307.082 163.334 314.956 161.53 322.847 159.756C329.726 158.269 336.663 157.18 343.612 156.073C345.571 155.752 345.571 155.752 347.569 155.425C377.149 150.585 377.149 150.585 390.424 159.064C391.326 159.632 392.228 160.201 393.158 160.786C396.045 162.606 398.928 164.435 401.809 166.264C405.567 168.645 409.328 171.02 413.09 173.393C414.476 174.27 414.476 174.27 415.89 175.166C420.417 178.016 424.966 180.782 429.634 183.395C430.501 183.882 431.367 184.368 432.26 184.87C434.611 186.178 436.974 187.464 439.337 188.748C443.665 191.665 446.212 194.6 449.093 198.923Z" fill="#060606"/>
<path d="M281.454 170.434C282.877 171.844 282.877 171.844 284.33 173.282C285.052 174.006 285.773 174.729 286.517 175.475C286.276 176.377 286.035 177.28 285.787 178.209C285.065 180.921 284.344 183.633 283.625 186.345C282.798 189.454 281.966 192.562 281.129 195.668C279.194 202.912 277.332 210.127 275.872 217.483C275.63 218.644 275.388 219.805 275.14 221.002C274.703 223.147 274.305 225.301 273.951 227.461C273.048 231.773 272.355 234.451 268.788 237.207C265.866 238.762 262.955 240.017 259.863 241.197C259.004 241.554 258.145 241.911 257.26 242.279C254.922 243.233 252.554 244.116 250.186 244.996C248.623 245.58 247.06 246.165 245.45 246.768C244.286 247.196 243.122 247.624 241.923 248.065C241.055 246.775 241.055 246.775 240.169 245.46C234.737 237.682 229.143 233.926 219.89 232.247C209.901 232.634 204.416 235.601 197.669 242.761C192.533 249.703 192.584 257.424 192.812 265.763C190.047 264.599 187.284 263.43 184.522 262.259C182.983 261.609 181.444 260.959 179.859 260.289C176.693 258.88 173.78 257.462 170.853 255.629C171.551 254.77 172.249 253.911 172.969 253.025C182.057 241.213 186.073 230.227 184.226 215.265C181.884 203.32 175.622 194.895 168.033 185.556C178.639 169.967 178.639 169.967 185.94 167.179C194.041 165.753 202.414 166.06 210.615 166.045C214.449 165.998 218.164 165.793 221.976 165.426C229.655 164.72 237.319 164.72 245.024 164.672C250.818 164.623 256.514 164.404 262.285 163.831C271.066 163.102 275.121 164.129 281.454 170.434Z" fill="#FFF7F1"/>
<path d="M170.221 212.114C172.396 222.045 171.597 231.452 166.859 240.522C160.392 249.294 153.118 253.953 142.39 256.002C133.578 256.546 125.112 255.088 117.826 249.889C109.573 242.13 104.992 235.739 104.016 224.293C104.039 213.799 107.014 206.454 113.757 198.347C120.997 191.423 129.031 189.014 138.946 188.624C153.119 189.066 165.617 198.522 170.221 212.114Z" fill="#FFF7F1"/>
<path d="M430.142 201.066C424.804 207.382 419.805 209.262 411.701 210.368C396.998 209.044 382.724 200.894 369.309 195.069C368.257 194.613 367.205 194.157 366.121 193.687C363.604 192.465 363.604 192.465 361.681 190.595C360.798 191.016 359.914 191.437 359.003 191.87C354.455 193.786 349.83 195.195 345.094 196.557C344.105 196.844 343.115 197.132 342.095 197.429C330.541 200.768 318.942 203.953 307.345 207.141C305.852 207.551 304.36 207.961 302.822 208.384C301.482 208.751 300.142 209.119 298.762 209.497C296.719 210.073 294.688 210.7 292.683 211.396C292.049 210.779 291.414 210.162 290.761 209.527C291.992 204.666 293.263 199.817 294.543 194.969C294.892 193.588 295.242 192.206 295.602 190.783C295.954 189.462 296.307 188.142 296.67 186.781C296.987 185.561 297.304 184.342 297.631 183.085C299.123 179.553 300.152 178.672 303.62 177.145C306.866 176.398 310.039 175.777 313.321 175.241C314.299 175.074 315.277 174.907 316.284 174.735C318.449 174.367 320.615 174.005 322.781 173.646C326.585 173.017 330.387 172.372 334.188 171.726C336.898 171.27 339.608 170.815 342.318 170.361C343.575 170.149 344.833 169.937 346.128 169.719C348.645 169.304 351.166 168.913 353.69 168.545C357.641 167.955 357.641 167.955 361.674 166.902C371.716 164.788 377.868 166.496 386.329 171.868C388.729 173.462 391.098 175.096 393.466 176.736C395.062 177.797 396.66 178.854 398.262 179.906C400.614 181.454 402.962 183.006 405.297 184.58C411.184 188.546 417.225 192.131 423.434 195.568C426.297 197.327 426.297 197.327 430.142 201.066Z" fill="#FFF7F1"/>
<path d="M356.736 247.506C357.171 250.509 357.171 250.509 357.273 253.887C357.318 255.132 357.364 256.377 357.411 257.66C357.445 258.957 357.48 260.253 357.515 261.589C357.598 264.132 357.683 266.674 357.771 269.217C357.814 270.478 357.857 271.739 357.902 273.039C358.169 279.059 358.673 285.054 359.207 291.056C359.313 292.244 359.418 293.433 359.526 294.657C359.786 297.558 360.051 300.458 360.318 303.358C352.453 303.818 345.603 300.39 339.401 295.757C333.603 289.816 333.271 281.191 332.17 273.324C331.969 271.918 331.969 271.918 331.763 270.484C331.401 267.875 331.073 265.261 330.747 262.647C328.946 256.988 326.644 255.875 321.694 252.703C318.949 251.452 316.155 250.302 313.327 249.249C311.773 248.659 310.218 248.069 308.617 247.462C307.011 246.866 305.405 246.269 303.75 245.655C300.543 244.456 297.337 243.251 294.135 242.039C292.013 241.251 292.013 241.251 289.848 240.446C286.403 238.954 286.403 238.954 283.519 236.15C285.254 228.331 285.254 228.331 289.249 225.357C290.749 224.81 292.249 224.262 293.794 223.698C294.817 223.256 295.841 222.814 296.895 222.358C305.166 219.359 310.015 219.458 318.041 223.199C321.224 224.894 324.355 226.62 327.483 228.408C329.088 229.281 330.696 230.15 332.305 231.015C335.267 232.622 338.22 234.248 341.158 235.899C344.018 237.504 346.925 239.028 349.861 240.491C355.239 243.631 355.239 243.631 356.736 247.506Z" fill="#FFF7F1"/>
<path d="M227.792 251.344C230.762 256.88 232.395 262.834 233.945 268.906C235.117 273.191 236.152 276.117 239.368 279.245C245.864 282.479 252.685 284.797 259.557 287.109C267.488 290.003 272.399 293.347 276.777 300.664C278.188 304.265 278.188 304.265 278.763 307.388C278.973 308.443 279.182 309.498 279.398 310.585C279.526 311.362 279.654 312.14 279.785 312.941C276.015 314.885 276.015 314.885 271.843 313.578C270.119 312.874 268.403 312.154 266.691 311.422C265.773 311.043 264.855 310.664 263.909 310.273C260.963 309.054 258.026 307.815 255.089 306.574C252.187 305.363 249.284 304.157 246.38 302.953C244.504 302.172 242.63 301.388 240.757 300.599C235.827 298.532 230.89 296.67 225.812 295C219.585 292.717 217.436 289.57 214.573 283.651C213.161 280.562 211.87 277.442 210.598 274.293C210.145 273.241 209.692 272.19 209.225 271.106C206.338 264.001 205.393 258.95 206.856 251.367C210.48 247.523 213.062 245.929 218.154 244.587C222.768 245.674 224.943 247.604 227.792 251.344Z" fill="#F8F8F8"/>
<path d="M146.698 222.786C146.722 224.68 146.722 224.68 144.391 227.79C141.105 230.438 141.105 230.438 137.188 230.253C132.977 228.42 131.642 227.079 129.62 223.01C129.57 219.221 129.57 219.221 131.492 216.531C134.251 214.422 134.251 214.422 137.509 214.083C142.291 215.771 143.986 218.617 146.698 222.786Z" fill="#0A0A0A"/>
</svg>
