<svg width="70" height="70" viewBox="0 0 70 70" fill="none" xmlns="http://www.w3.org/2000/svg">
<path d="M31.2411 0.152474C31.321 0.241417 32.1463 1.25792 33.078 2.41418L34.7819 4.5107L32.5988 4.66318C31.4008 4.73941 29.91 4.90459 29.311 5.00624C22.2295 6.25145 15.96 9.4153 10.8485 14.2945C4.61891 20.2664 0.971705 28.8431 1.0782 37.2673L1.10482 38.5633L1.21131 37.3562C1.6772 32.2357 2.34271 29.5546 4.09978 25.73C7.18802 19.0466 12.579 13.71 19.4875 10.4953C23.1879 8.76728 26.4758 7.83972 30.0165 7.50937C32.2128 7.30606 33.9433 7.22983 33.9433 7.34418C33.9433 7.39501 33.0115 8.11927 31.88 8.95788C30.7486 9.7838 29.8567 10.4953 29.8967 10.5334C29.9632 10.6096 33.4641 11.0417 34.0098 11.0417C34.3293 11.0544 34.9282 10.6605 36.8717 9.19929C38.2294 8.18279 39.6138 7.14089 39.9466 6.89947L40.5722 6.44205L39.0414 4.58694C38.2028 3.57044 37.1512 2.27441 36.712 1.71534C36.2594 1.15626 35.8601 0.660722 35.8068 0.609898C35.7403 0.520955 31.8534 0 31.2943 0C31.1745 0 31.1612 0.0508248 31.2411 0.152474Z" fill="#F74715"/>
<path d="M50.449 9.83456C50.449 9.87268 50.8217 10.1014 51.261 10.3682C51.7136 10.6224 52.6853 11.2704 53.4308 11.7913C60.0463 16.4926 64.652 23.5954 66.1695 31.4732C66.5155 33.2902 66.6619 37.7119 66.4223 39.8466C66.023 43.6203 64.9049 47.267 63.1478 50.6214C62.7352 51.3965 62.3225 52.1335 62.2293 52.2605C62.0696 52.4766 62.0563 52.4766 61.9897 52.197C61.9498 52.0318 61.7768 50.9137 61.6171 49.7066C61.444 48.5122 61.271 47.5212 61.231 47.5212C61.0846 47.5338 58.5023 50.9518 58.5288 51.1043C58.5288 51.1932 58.7684 52.8831 59.048 54.8653C59.5405 58.3087 59.5671 58.4612 59.8334 58.3976C59.9798 58.3722 61.7369 58.1308 63.7335 57.864L67.3807 57.3939L68.7651 55.6276C69.5371 54.662 70.0829 53.8742 69.9897 53.8742C69.8965 53.8742 68.5655 54.0521 67.0213 54.2554C65.4906 54.4714 64.2127 54.6366 64.1861 54.6366C64.1728 54.6366 64.3325 54.3316 64.5455 53.9632C66.3025 51.0026 67.8067 46.3776 68.3658 42.248C68.6719 39.9864 68.5655 35.2596 68.1794 33.2012C67.5537 29.9866 66.6752 27.2547 65.3708 24.6246C62.7618 19.3261 58.7152 14.8408 53.6038 11.588C52.2992 10.7621 50.449 9.73288 50.449 9.83456Z" fill="#F74715"/>
<path d="M21.3377 12.4648C20.4858 12.9858 20.4858 13.0239 20.5258 18.7925C20.5657 23.8495 20.579 24.002 20.8452 24.3578C21.3644 25.0312 21.351 25.0312 27.2878 25.0312C32.5989 25.0312 32.8252 25.0185 33.2511 24.7771C34.0631 24.307 34.0764 24.1798 34.0764 18.6527C34.0764 14.0657 34.0498 13.621 33.8235 13.1382C33.3709 12.1979 33.3843 12.1979 27.1946 12.1979C21.9766 12.1979 21.7503 12.2106 21.3377 12.4648ZM24.9184 16.1242C25.2911 16.4418 25.3577 16.5816 25.3577 17.0898C25.3577 17.5981 25.2911 17.7378 24.9184 18.0555C24.1463 18.7162 23.0815 18.4875 22.6688 17.5727C22.1097 16.2766 23.8136 15.1839 24.9184 16.1242ZM31.5606 16.086C31.6937 16.2004 31.8668 16.4799 31.9333 16.6959C32.3061 18.0428 30.7353 18.983 29.6571 18.0555C29.2844 17.7378 29.2178 17.5981 29.2178 17.0898C29.2178 16.5816 29.2844 16.4418 29.6705 16.1115C30.0698 15.7811 30.1896 15.7303 30.7087 15.7938C31.0282 15.8192 31.4142 15.959 31.5606 16.086ZM29.3244 20.8509C29.8834 21.1431 29.9766 21.5751 29.5507 21.9817C29.3111 22.2105 29.1114 22.2358 27.2878 22.2358C25.4641 22.2358 25.2644 22.2105 25.0248 21.9817C24.6122 21.5878 24.6921 21.1558 25.2245 20.8635C25.5839 20.6729 28.9383 20.6603 29.3244 20.8509Z" fill="#F74715"/>
<path d="M17.3176 15.1967C17.0647 15.5016 17.038 15.7049 17.038 17.0517C17.038 19.0974 17.1578 19.3135 18.3425 19.3135H19.0347V17.0898V14.8663H18.3159C17.6903 14.8663 17.5572 14.9171 17.3176 15.1967Z" fill="#F74715"/>
<path d="M35.5406 17.0898V19.3135H36.2594C37.4308 19.3135 37.5905 18.9831 37.5107 16.7341C37.4574 15.0695 37.3243 14.8663 36.2461 14.8663H35.5406V17.0898Z" fill="#F74715"/>
<path d="M42.0099 23.5827C41.6505 23.9258 41.7703 24.2689 42.5555 25.0439L43.301 25.7936H42.4491C40.3193 25.7936 37.737 26.4416 35.5407 27.5216C34.2494 28.1696 32.346 29.3894 32.346 29.58C32.346 29.6689 33.3843 30.1137 33.5839 30.1137C33.6504 30.1137 34.0764 29.8595 34.5423 29.5419C36.6055 28.1315 39.4142 27.2167 42.0631 27.1023L43.5938 27.0261L42.702 27.9282C42.1961 28.4238 41.7968 28.932 41.7968 29.0718C41.7968 29.3894 42.1297 29.7325 42.4357 29.7325C42.7153 29.7325 45.7901 26.81 45.7901 26.556C45.7901 26.2891 42.7153 23.3794 42.4357 23.3794C42.3159 23.3794 42.1163 23.4684 42.0099 23.5827Z" fill="#F74715"/>
<path d="M48.1196 27.115C47.7867 27.5852 48.0131 27.8266 49.4107 28.4872C53.271 30.3297 56.1462 33.7095 57.2244 37.7374C57.5438 38.8809 57.7701 41.6763 57.5571 41.6763C57.4905 41.6763 57.038 41.3079 56.5721 40.8504C56.1062 40.393 55.6137 40.0245 55.4939 40.0245C55.1744 40.0245 54.8417 40.3676 54.8417 40.6852C54.8417 41.0156 57.5704 43.6839 58.0097 43.7982C58.2759 43.8618 58.5687 43.6458 59.9132 42.3624C60.7784 41.5366 61.4972 40.7614 61.4972 40.6471C61.4972 40.4057 61.0845 40.0245 60.8184 40.0245C60.7118 40.0245 60.2992 40.3421 59.8999 40.7233C59.5006 41.1045 59.1412 41.4222 59.0879 41.4222C59.0479 41.4222 58.9681 40.8886 58.9281 40.2278C58.5422 34.6498 55.1611 29.796 49.9965 27.3691C49.3441 27.0642 48.6919 26.81 48.5589 26.81C48.4391 26.81 48.226 26.9498 48.1196 27.115Z" fill="#F74715"/>
<path d="M24.4392 29.1734C22.3227 29.6181 20.8718 30.2026 19.0748 31.3335C15.2012 33.7857 12.6455 38.2711 12.6455 42.6166C12.6455 43.9126 13.0316 44.7767 13.9767 45.6279C15.5341 47.0257 18.8219 48.1183 22.6954 48.5376C23.8003 48.652 28.752 48.7282 28.752 48.6139C28.752 48.5885 28.5523 48.1564 28.2993 47.6356C27.4208 45.8059 26.9683 44.154 26.8085 42.2099C26.7553 41.5619 26.6887 41.041 26.6488 41.041C26.6089 41.041 26.2627 41.3332 25.8634 41.6891C25.3044 42.1973 25.0914 42.3116 24.8518 42.2481C24.4924 42.1337 24.2262 41.8288 24.2262 41.4985C24.2262 41.1935 27.0881 38.4362 27.5273 38.3092C27.7936 38.2329 28.0597 38.4362 29.3643 39.656C30.7619 40.9775 30.8817 41.13 30.8817 41.5747C30.8817 41.9178 30.8151 42.0829 30.6155 42.1846C30.2561 42.3624 29.9366 42.1973 28.9649 41.3079L28.1929 40.5963L28.2861 41.8034C28.4458 44.0015 29.1247 46.2633 30.0831 47.8643C30.549 48.6393 30.5623 48.6393 32.4791 48.3598L33.6105 48.1946L34.6887 49.1603C36.9782 51.2059 39.4008 52.0954 42.6354 52.0954C47.7602 52.0954 52.1928 48.9188 53.7235 44.154C54.0563 43.1121 54.0962 42.8326 54.0962 41.041C54.0962 39.2621 54.0563 38.9572 53.7368 37.9534C52.7385 34.8785 50.8616 32.7057 47.8666 31.181C44.499 29.4783 39.9865 29.5673 36.7519 31.4097L36.1796 31.7401L35.2877 31.1937C34.8085 30.9015 34.2228 30.5584 33.9965 30.4567L33.5705 30.2535L32.4258 31.3843C31.1745 32.6295 30.296 33.8239 29.6039 35.2724C29.2577 35.9839 29.0715 36.2253 28.8185 36.2889C28.3792 36.3906 28.1131 36.2889 27.9399 35.9077C27.6339 35.2724 29.4175 32.3119 31.1613 30.5584L32.093 29.6308L30.8551 29.3386C29.2445 28.9575 25.8501 28.8684 24.4392 29.1734ZM45.0314 31.7528C48.7718 32.6676 51.5272 35.4122 52.3791 39.0715C52.6986 40.393 52.5921 42.642 52.1794 43.8364C51.3675 46.1235 49.9831 47.8643 47.9864 49.0841C46.2161 50.1514 44.6854 50.5707 42.5156 50.5707C40.1595 50.5707 38.1229 49.8972 36.2594 48.4995C34.6621 47.2925 33.1579 45.018 32.7319 43.1376C32.4391 41.8542 32.5057 39.6179 32.8651 38.4998C33.7702 35.7044 35.6071 33.6206 38.2561 32.4008C39.6937 31.7401 40.6387 31.5367 42.4756 31.5241C43.6072 31.5114 44.286 31.5749 45.0314 31.7528Z" fill="#F74715"/>
<path d="M37.1911 35.6282C37.1512 35.7298 37.1379 35.9458 37.1644 36.1109C37.1911 36.3397 37.2842 36.4032 37.6037 36.4032C37.9765 36.4032 38.003 36.3651 38.003 35.9585C38.003 35.5646 37.9631 35.5138 37.6304 35.4757C37.404 35.4503 37.2443 35.501 37.1911 35.6282ZM37.8034 35.9585C37.8034 36.0983 37.7102 36.2126 37.6037 36.2126C37.4973 36.2126 37.404 36.0983 37.404 35.9585C37.404 35.8188 37.4973 35.7044 37.6037 35.7044C37.7102 35.7044 37.8034 35.8188 37.8034 35.9585Z" fill="#F74715"/>
<path d="M38.6554 35.6282C38.4956 36.022 38.6554 36.4032 39.0148 36.4413C39.4274 36.4921 39.7069 36.2126 39.6403 35.806C39.6138 35.5773 39.5072 35.501 39.1611 35.4757C38.8816 35.4503 38.7086 35.501 38.6554 35.6282ZM39.3342 35.9585C39.3342 36.0602 39.2277 36.1618 39.1079 36.1872C38.9349 36.2126 38.8683 36.1491 38.8683 35.9585C38.8683 35.7679 38.9349 35.7044 39.1079 35.7298C39.2277 35.7552 39.3342 35.8569 39.3342 35.9585Z" fill="#F74715"/>
<path d="M40.1195 35.7679C40.0131 36.1872 40.2793 36.4921 40.7185 36.4414C41.0115 36.4032 41.0647 36.3397 41.0647 35.9585C41.0647 35.552 41.0247 35.5138 40.6387 35.4757C40.266 35.4376 40.1994 35.4884 40.1195 35.7679ZM40.865 35.9585C40.865 36.0983 40.7719 36.2126 40.6653 36.2126C40.5588 36.2126 40.4657 36.0983 40.4657 35.9585C40.4657 35.8188 40.5588 35.7044 40.6653 35.7044C40.7719 35.7044 40.865 35.8188 40.865 35.9585Z" fill="#F74715"/>
<path d="M44.6187 35.7171C44.0597 35.9839 43.3941 36.6574 43.3941 36.9624C43.3941 37.0767 43.2477 37.0894 42.9016 37.0131C41.9699 36.8226 40.7984 36.9242 40.0264 37.2673C38.4957 37.9407 37.6171 39.224 37.4574 41.0283C37.3908 41.8034 37.3242 42.0194 37.1912 41.9686C36.8983 41.8669 36.9782 42.1084 37.311 42.4133L37.6171 42.6928L37.91 42.4005C38.2561 42.0575 38.2826 41.8669 38.0031 41.9812C37.8301 42.0321 37.8034 41.8923 37.8034 41.0664C37.8034 40.304 37.87 39.9483 38.1229 39.4401C39.0414 37.5595 41.3974 36.6828 43.3808 37.4832C44.2726 37.8518 45.2843 38.9064 45.5904 39.7831C45.8966 40.6599 45.8167 42.0448 45.4041 42.7945C44.9515 43.6331 44.1263 44.4208 43.2877 44.8148C42.6487 45.107 42.3293 45.1705 41.1712 45.2086C38.9083 45.2976 39.6271 45.4882 42.1828 45.4882H44.5655L44.4989 45.7678C44.4324 46.0473 44.4457 46.0473 44.8051 45.7169C45.1645 45.3738 45.1645 45.3611 44.9249 45.107C44.6454 44.8148 44.3924 44.7639 44.5122 45.0435C44.5655 45.196 44.459 45.2341 43.8999 45.2341H43.2078L43.8068 44.8783C44.6454 44.37 45.4706 43.4171 45.8035 42.5785C46.0297 42.0067 46.0696 41.6636 46.0297 40.8505C45.9897 40.2913 45.9233 39.7322 45.87 39.6052C45.7768 39.4146 45.8434 39.3892 46.3359 39.3892C47.2411 39.3892 47.2676 39.3384 47.2277 37.9153L47.1878 36.6574H46.7219H46.256L46.2161 37.8899C46.1894 38.881 46.1362 39.1351 45.9898 39.1351C45.83 39.1351 45.7901 38.9572 45.7901 38.3219C45.7901 37.4325 45.6304 37.1783 45.0979 37.2545C44.8983 37.28 44.7785 37.3943 44.7518 37.5723C44.6986 37.9407 44.6986 37.9407 44.0597 37.5341C43.7669 37.3435 43.5672 37.1402 43.6204 37.0513C44.3791 35.7552 45.8833 35.3359 47.0547 36.0983C48.0131 36.7209 48.3325 37.9916 47.8001 38.9953C47.5072 39.529 46.9082 39.9864 46.8283 39.745C46.7485 39.529 46.4557 39.745 46.4557 40.0245C46.4557 40.1643 46.5755 40.3295 46.7086 40.4057C47.068 40.5836 47.1612 40.5709 47.0813 40.3421C47.028 40.2278 47.1478 40.0626 47.4008 39.8975C48.3193 39.2621 48.6253 37.7247 48.0397 36.7209C47.3741 35.6028 45.8035 35.1327 44.6187 35.7171ZM46.9615 37.9534C46.9349 38.8428 46.8817 39.0716 46.7219 39.0716C46.5622 39.0716 46.5089 38.8428 46.4823 37.9534C46.4424 36.9115 46.4557 36.848 46.7219 36.848C46.9881 36.848 47.0015 36.9115 46.9615 37.9534ZM45.3908 38.0678C45.3908 38.576 45.3642 38.6396 45.1911 38.4998C45.0847 38.4109 44.9914 38.144 44.9914 37.9153C44.9914 37.6104 45.058 37.4832 45.1911 37.4832C45.3375 37.4832 45.3908 37.6357 45.3908 38.0678Z" fill="#F74715"/>
<path d="M41.1313 38.6268C41.1313 38.9699 40.7585 39.097 40.4924 38.8302C40.2927 38.6396 40.2394 38.6649 39.7736 39.097C39.3077 39.529 39.281 39.5798 39.4807 39.7958C39.7469 40.0626 39.6271 40.4057 39.2677 40.4057C39.0414 40.4057 39.0015 40.4819 39.0015 41.041C39.0015 41.6001 39.0414 41.6763 39.2677 41.6763C39.6138 41.6763 39.7469 41.994 39.5206 42.2608C39.3875 42.426 39.4275 42.5277 39.8401 42.9215C40.3193 43.379 40.3193 43.379 40.5988 43.1376C40.8384 42.9342 40.905 42.9215 40.9981 43.074C41.078 43.1757 41.1313 43.3663 41.1313 43.4806C41.1313 43.6712 41.2511 43.7093 41.7968 43.7093C42.4092 43.7093 42.4624 43.6839 42.4624 43.4044C42.4624 42.9723 42.6887 42.8707 43.0082 43.1502C43.261 43.3663 43.2877 43.3663 43.7535 42.9089C44.2327 42.4641 44.2327 42.4387 44.0065 42.1973C43.7136 41.8923 43.8201 41.6763 44.2727 41.6763C44.5656 41.6763 44.5921 41.6255 44.5921 41.041C44.5921 40.5201 44.5522 40.4057 44.3525 40.4057C43.9266 40.4057 43.7669 40.1389 44.0198 39.872C44.2327 39.6433 44.2194 39.6052 43.7669 39.1732C43.3542 38.7793 43.2478 38.7412 43.0747 38.8683C42.7951 39.0842 42.4624 38.9572 42.4624 38.6268C42.4624 38.4109 42.3825 38.3727 41.7968 38.3727C41.2112 38.3727 41.1313 38.4109 41.1313 38.6268ZM42.2494 38.9572C42.3293 39.2621 42.3825 39.2876 42.8617 39.224C43.261 39.1732 43.4341 39.2114 43.6072 39.4019C43.7802 39.5925 43.7935 39.6814 43.6737 39.8212C43.4341 40.0881 43.6204 40.5201 44.0065 40.609C44.459 40.7233 44.4723 41.3587 44.0065 41.473C43.6204 41.5619 43.4874 41.8669 43.6737 42.21C43.7935 42.426 43.7669 42.5149 43.5539 42.7309C43.3143 42.947 43.2478 42.9596 43.0614 42.8198C42.7818 42.5911 42.1961 42.8453 42.1961 43.201C42.1961 43.6077 41.4508 43.5569 41.3442 43.1502C41.2511 42.7817 40.7985 42.6039 40.5189 42.8326C40.3726 42.947 40.2793 42.9342 40.0797 42.7691C39.88 42.6039 39.8401 42.4387 39.8934 42.0575C39.9599 41.6001 39.9333 41.5493 39.6138 41.473C39.3343 41.4095 39.2677 41.3205 39.2677 41.0283C39.2677 40.825 39.3343 40.6599 39.4008 40.6599C39.4807 40.6599 39.6538 40.5455 39.8001 40.4057C40.0265 40.1897 40.0397 40.1008 39.9067 39.8339C39.7869 39.5671 39.7868 39.4654 39.9732 39.3003C40.1462 39.1351 40.2528 39.1223 40.5056 39.224C40.7585 39.3384 40.8917 39.3257 41.1179 39.1859C41.2644 39.0842 41.3975 38.9064 41.3975 38.8047C41.3975 38.6904 41.5306 38.6268 41.7835 38.6268C42.0897 38.6268 42.1828 38.6904 42.2494 38.9572Z" fill="#F74715"/>
<path d="M41.3443 39.5163C39.6005 40.0118 39.88 42.5658 41.677 42.5658C42.7552 42.5658 43.3942 41.994 43.3942 41.0283C43.3942 40.1643 42.9283 39.656 41.93 39.4527C41.8235 39.4273 41.5572 39.4654 41.3443 39.5163ZM42.7419 40.1389C43.2877 40.6725 43.2877 41.3841 42.7153 41.9178C42.1562 42.4641 41.4109 42.4641 40.8518 41.9431C39.9998 41.1173 40.5855 39.7704 41.7968 39.7704C42.2361 39.7704 42.4358 39.8466 42.7419 40.1389Z" fill="#F74715"/>
<path d="M41.1977 40.4693C40.7984 40.8377 40.7718 41.1681 41.1045 41.5619C41.4107 41.905 42.1029 41.9431 42.4223 41.6382C42.7418 41.3332 42.7019 40.6725 42.3425 40.3803C41.9299 40.0626 41.5837 40.0881 41.1977 40.4693ZM42.1827 40.5836C42.2759 40.6852 42.3292 40.9267 42.3025 41.13C42.2759 41.4222 42.1827 41.4985 41.8633 41.5238C41.6104 41.5619 41.424 41.4985 41.3042 41.346C41.0779 41.041 41.0779 40.9648 41.3974 40.6599C41.7168 40.3549 41.9698 40.3421 42.1827 40.5836Z" fill="#F74715"/>
<path d="M37.0846 43.4679C36.7385 43.7347 36.7252 43.7475 36.7651 45.1451L36.805 46.5683H38.003H39.201L39.2409 45.0562C39.2676 44.0651 39.2277 43.4933 39.1211 43.379C38.8683 43.0867 37.5105 43.1503 37.0846 43.4679ZM38.9349 44.9164V46.3141L37.9765 46.3522L37.0047 46.3903V45.2976C37.0047 44.2303 37.0047 44.2176 37.3375 44.2176C37.6037 44.2176 37.6969 44.1413 37.7634 43.8237C37.83 43.4679 37.8699 43.4425 38.3891 43.4806L38.9349 43.5188V44.9164ZM37.3508 43.9253C37.2177 44.0524 37.0979 43.8618 37.2177 43.6966C37.2976 43.5569 37.3242 43.5569 37.3775 43.6966C37.404 43.7856 37.3907 43.8872 37.3508 43.9253Z" fill="#F74715"/>
<path d="M38.2028 44.0905C38.2028 44.154 38.2693 44.2175 38.3359 44.2175C38.4158 44.2175 38.469 44.154 38.469 44.0905C38.469 44.0142 38.4158 43.9633 38.3359 43.9633C38.2693 43.9633 38.2028 44.0142 38.2028 44.0905Z" fill="#F74715"/>
<path d="M37.404 44.8529C37.404 44.9164 37.6436 44.98 37.9365 44.98C38.2293 44.98 38.4689 44.9164 38.4689 44.8529C38.4689 44.7767 38.2293 44.7258 37.9365 44.7258C37.6436 44.7258 37.404 44.7767 37.404 44.8529Z" fill="#F74715"/>
<path d="M37.404 45.6153C37.404 45.6787 37.6436 45.7423 37.9365 45.7423C38.2293 45.7423 38.4689 45.6787 38.4689 45.6153C38.4689 45.539 38.2293 45.4881 37.9365 45.4881C37.6436 45.4881 37.404 45.539 37.404 45.6153Z" fill="#F74715"/>
<path d="M45.4706 44.0397C45.3242 44.4082 45.3774 46.3141 45.5504 46.4793C45.6569 46.581 46.1628 46.6317 46.9481 46.6317C48.4256 46.6317 48.4523 46.6064 48.4523 45.1832C48.4523 43.7856 48.5189 43.8364 46.9215 43.8364C45.79 43.8364 45.5372 43.8745 45.4706 44.0397ZM46.7219 44.4718C46.7219 44.7258 46.7884 44.8529 46.9215 44.8529C47.0546 44.8529 47.1212 44.7258 47.1212 44.4718C47.1212 44.1159 47.1611 44.0906 47.587 44.0906H48.0529V45.2341V46.3777H47.587C47.1212 46.3777 47.1212 46.3777 47.1212 45.8059C47.1212 45.3866 47.0679 45.2341 46.9215 45.2341C46.7751 45.2341 46.7219 45.3866 46.7219 45.8059C46.7219 46.3777 46.7219 46.3777 46.2559 46.3777H45.79V45.2341V44.0906H46.2559C46.6819 44.0906 46.7219 44.1159 46.7219 44.4718Z" fill="#F74715"/>
<path d="M56.7851 46.0854C56.7318 46.1489 56.4922 46.5936 56.2526 47.0891C54.9215 49.821 52.3658 52.3114 49.4507 53.7091C47.6404 54.5858 45.2177 55.1449 43.2877 55.1449H42.1562L43.1013 54.2046C43.6337 53.6836 44.0597 53.2135 44.0597 53.1373C44.0597 53.0737 43.9531 52.8832 43.8201 52.7307C43.6337 52.5147 43.4873 52.4639 43.2477 52.5147C42.7685 52.6291 40.0663 55.2974 40.0663 55.6531C40.0663 56.0089 42.7685 58.6772 43.2477 58.7915C43.4873 58.8424 43.6337 58.7915 43.8201 58.5756C43.9531 58.4231 44.0597 58.2325 44.0597 58.169C44.0597 58.1054 43.7269 57.7242 43.3276 57.3177C42.9283 56.911 42.5954 56.5553 42.5954 56.5172C42.5954 56.4791 43.2078 56.4155 43.9665 56.3647C49.7035 56.0216 54.6952 52.845 57.2509 47.9277C57.8366 46.797 57.9165 46.5682 57.7834 46.3014C57.6902 46.0854 57.5305 45.9965 57.2643 45.9965C57.0513 45.9965 56.8383 46.0346 56.7851 46.0854Z" fill="#F74715"/>
<path d="M1.49084 51.7269L0 55.1702L0.811973 57.038C1.26456 58.0545 1.66389 58.9694 1.71713 59.0583C1.78369 59.16 2.24957 58.2197 2.94171 56.6187C3.55409 55.183 4.0865 54.0013 4.12643 54.0013C4.16637 54.0013 4.39269 54.3316 4.64557 54.7382C6.90848 58.334 10.9151 62.2221 14.9217 64.7253C16.4925 65.6909 17.3843 66.1611 19.1147 66.9362C25.8235 69.9094 32.7054 70.7099 40.1994 69.3758C42.2095 69.02 45.4441 67.9781 47.8267 66.9235C49.0646 66.3644 51.647 64.9794 51.647 64.8651C51.647 64.8396 50.9415 65.1446 50.0896 65.5639C46.8817 67.1013 44.0198 67.9908 40.5323 68.5626C38.682 68.8675 38.0298 68.9183 35.474 68.9183C33.677 68.931 32.0531 68.8675 31.281 68.7659C25.2644 67.9527 20.2462 65.9959 15.6006 62.6414C12.579 60.4687 9.86354 57.6226 7.89344 54.5476C7.26788 53.582 7.10815 53.2389 7.29444 53.2897C7.42762 53.3405 8.55903 53.7726 9.78368 54.2554C11.0216 54.7382 12.0465 55.1194 12.0599 55.1067C12.0732 55.094 11.6871 54.1791 11.1946 53.061L10.3161 51.0534L6.78868 49.6685C4.84523 48.9061 3.19469 48.2835 3.11482 48.2835C3.03496 48.2835 2.30278 49.8336 1.49084 51.7269Z" fill="#F74715"/>
<path d="M29.2577 48.7664C28.6721 48.9951 31.9332 52.5401 33.8767 53.7599C34.3958 54.0903 35.3275 54.5985 35.9665 54.9034C36.9782 55.3863 37.1645 55.4244 37.4574 55.2974C37.7235 55.183 37.8034 55.0559 37.8034 54.7637C37.8034 54.4079 37.7103 54.3444 36.4856 53.7599C34.3292 52.718 32.2661 51.0662 30.9615 49.3255C30.509 48.7282 30.4158 48.6648 29.9765 48.6774C29.697 48.6774 29.3775 48.7156 29.2577 48.7664Z" fill="#F74715"/>
<path d="M24.3593 61.498V65.0557H28.0863H31.8134V61.498V57.9402H28.0863H24.3593V61.498ZM31.0147 61.498V64.4204H28.0197H25.0247V61.498V58.5756H28.0197H31.0147V61.498Z" fill="#F74715"/>
<path d="M29.4707 59.5158C29.3376 59.8462 29.5239 60.1257 29.8434 60.0749C30.0697 60.0494 30.1496 59.9478 30.1496 59.7191C30.1496 59.4904 30.0697 59.3887 29.8434 59.3633C29.6704 59.338 29.5107 59.4014 29.4707 59.5158Z" fill="#F74715"/>
<path d="M25.8235 61.1677C25.8235 62.5526 25.8369 62.6415 26.1696 63.01C26.4758 63.3658 26.5956 63.4039 27.2212 63.4039C27.7936 63.4039 28.0198 63.3404 28.3127 63.0989C28.6721 62.794 28.6854 62.7559 28.7253 61.2566L28.7785 59.7191H28.4325H28.0864V61.0279C28.0864 62.5399 27.9666 62.8068 27.2877 62.8068C26.6089 62.8068 26.4891 62.5399 26.4891 61.0279V59.7191H26.1563H25.8235V61.1677Z" fill="#F74715"/>
<path d="M29.5506 62.0062V63.4038H29.8833H30.2161V62.0062V60.6085H29.8833H29.5506V62.0062Z" fill="#F74715"/>
<path d="M41.7968 61.4979V63.4039H42.1296C42.4491 63.4039 42.4623 63.3785 42.4623 62.5018C42.4623 61.3836 42.5954 61.1168 43.1679 61.1168C43.8201 61.1168 43.9266 61.2947 43.9266 62.4128V63.4039H44.3392H44.7652L44.6986 62.3239C44.6454 61.4217 44.5921 61.193 44.3392 60.9389C43.9266 60.5196 43.4607 60.4306 42.9682 60.6721C42.7419 60.7737 42.5289 60.8627 42.5023 60.8627C42.489 60.8627 42.4623 60.5704 42.4623 60.2274C42.4623 59.6301 42.4357 59.592 42.1296 59.592H41.7968V61.4979Z" fill="#F74715"/>
<path d="M32.7453 61.5615V63.4039H33.078C33.3842 63.4039 33.4108 63.3531 33.4108 62.8449V62.2984L34.0764 62.235C35.1679 62.1333 35.6604 61.4853 35.3942 60.545C35.2344 59.9987 34.6222 59.7191 33.5572 59.7191H32.7453V61.5615ZM34.4491 60.4306C35.1014 60.8627 34.6487 61.7521 33.7836 61.7521C33.4108 61.7521 33.4108 61.7394 33.4108 60.9897C33.4108 60.24 33.4108 60.2274 33.7836 60.2274C33.9832 60.2274 34.2893 60.3163 34.4491 60.4306Z" fill="#F74715"/>
<path d="M39.8 60.1638C39.8 60.4053 39.7468 60.6085 39.667 60.6085C39.6004 60.6085 39.5339 60.7229 39.5339 60.8627C39.5339 61.0024 39.6004 61.1168 39.667 61.1168C39.7468 61.1168 39.8 61.4217 39.8 61.8029C39.8 62.5399 39.9731 63.1498 40.2393 63.3023C40.3325 63.3531 40.5987 63.4039 40.8383 63.4039C41.1711 63.4039 41.2643 63.3531 41.2643 63.1625C41.2643 62.9973 41.1578 62.8957 40.9715 62.8702C40.6919 62.8321 40.6653 62.7559 40.6254 61.9681C40.5854 61.1295 40.5854 61.1168 40.9315 61.1168C41.1711 61.1168 41.2643 61.0533 41.2643 60.8627C41.2643 60.6721 41.1711 60.6085 40.9315 60.6085C40.6386 60.6085 40.5987 60.5578 40.5987 60.1638C40.5987 59.7573 40.5721 59.7191 40.1994 59.7191C39.8267 59.7191 39.8 59.7573 39.8 60.1638Z" fill="#F74715"/>
<path d="M36.7919 60.6212C36.0199 60.8373 35.6471 61.7648 36.0065 62.6034C36.3259 63.3658 37.1779 63.658 37.9233 63.2769C38.1097 63.1879 38.2028 63.1879 38.2028 63.2769C38.2028 63.3404 38.3892 63.4039 38.6021 63.4039H39.0015V62.0063V60.6086H38.6021C38.3226 60.6086 38.2028 60.6721 38.2028 60.8118C38.2028 60.9897 38.1895 60.9897 37.9899 60.8118C37.8833 60.6975 37.737 60.6086 37.6704 60.6086C37.6038 60.6086 37.484 60.5831 37.3776 60.5578C37.2843 60.5323 37.0182 60.5578 36.7919 60.6212ZM37.9632 61.3328C38.2694 61.587 38.2827 62.3493 37.9766 62.667C37.4707 63.2006 36.6055 62.794 36.6055 62.0316C36.6055 61.2311 37.3776 60.8246 37.9632 61.3328Z" fill="#F74715"/>
</svg>
