<svg width="292" height="204" viewBox="0 0 292 204" fill="none" xmlns="http://www.w3.org/2000/svg">
<path d="M259.372 81.508C259.392 88.1365 257.12 93.6853 252.62 98.6049C247.003 102.289 242.024 103.967 235.381 102.656C229.988 101.124 227.897 99.6833 224.537 95.0886C214.357 99.807 204.178 104.525 193.69 109.387C193.646 110.862 193.602 112.337 193.557 113.857C192.82 116.328 192.038 118.723 191.166 121.144C190.918 121.837 190.671 122.53 190.416 123.244C189.892 124.704 189.364 126.163 188.832 127.621C188.025 129.846 187.244 132.079 186.463 134.313C185.949 135.735 185.434 137.155 184.917 138.576C184.688 139.241 184.458 139.906 184.222 140.592C182.614 144.893 180.959 147.06 176.852 149.155C174.678 148.923 174.678 148.923 172.869 147.695C171.521 145.918 171.521 145.918 170.766 143.158C171.382 139.994 172.545 137.063 173.706 134.063C174.03 133.189 174.354 132.316 174.687 131.416C175.726 128.627 176.787 125.847 177.849 123.067C178.552 121.184 179.253 119.3 179.953 117.416C181.239 113.977 182.526 110.537 183.836 107.107C184.099 106.417 184.362 105.727 184.632 105.016C186.463 100.808 190.305 99.7952 194.242 98.0012C194.985 97.6583 195.728 97.3154 196.494 96.9622C198.872 95.866 201.253 94.7762 203.634 93.6865C205.245 92.9452 206.856 92.2036 208.467 91.4615C212.42 89.6415 216.375 87.8272 220.332 86.0159C220.02 84.901 220.02 84.901 219.701 83.7636C218.907 79.9615 219.588 76.9861 221.149 73.5126C224.752 68.0437 228.658 64.7153 234.891 62.7344C241.873 61.7481 246.853 63.9619 252.639 67.7342C256.542 70.8456 258.649 76.673 259.372 81.508Z" fill="#060606"/>
<path d="M285.928 165.483C285.07 170.489 282.485 174.549 278.901 178.114C272.721 181.649 266.785 183.358 259.796 181.578C254.799 179.681 250.697 177.012 248.213 172.188C246.066 167.323 245.59 164.066 244.979 158.46C233.796 153.751 222.613 149.042 211.091 144.191C208.293 149.528 208.293 149.528 205.774 154.995C203.09 156.358 203.09 156.358 200.218 157.259C197.611 156.161 197.611 156.161 196.143 153.811C195.063 149.462 196.359 146.591 198.117 142.66C198.39 141.969 198.663 141.278 198.945 140.566C199.376 139.562 199.376 139.562 199.816 138.538C200.075 137.937 200.333 137.336 200.599 136.716C202.814 133.806 204.603 132.701 208.038 131.397C211.476 132.037 214.463 133.497 217.609 134.989C218.516 135.39 219.423 135.792 220.357 136.206C223.253 137.49 226.131 138.807 229.008 140.131C231.893 141.45 234.78 142.76 237.679 144.047C239.482 144.849 241.277 145.669 243.062 146.508C245.292 147.503 247.37 148.398 249.746 148.959C252.345 148.039 252.345 148.039 254 146.146C259.381 143.239 264.118 140.871 270.271 142.352C281.214 146.155 286.692 153.869 285.928 165.483Z" fill="#060606"/>
<path d="M165.343 19.2777C167.399 24.4655 167.567 29.4406 166.563 34.9105C163.624 40.9851 157.99 45.3511 152.607 49.2372C151.926 50.6464 151.926 50.6464 151.231 52.084C151.703 52.5445 152.176 53.005 152.663 53.4795C152.203 53.9523 151.742 54.4251 151.268 54.9122C151.505 55.4332 151.743 55.9542 151.987 56.4911C153.045 60.2215 152.975 63.8038 152.982 67.6629C152.992 68.4234 153.001 69.184 153.011 69.9677C153.036 73.313 152.914 76.3515 152.3 79.6495C148.025 83.2415 148.025 83.2415 145.983 83.2683C143.764 81.5986 143.764 81.5986 141.685 79.0818C141.252 75.9466 141.252 75.9466 141.381 72.3235C141.403 71.016 141.425 69.7085 141.447 68.3613C141.508 66.2931 141.578 64.2255 141.656 62.1578C141.724 60.1531 141.756 58.1473 141.787 56.1417C141.828 54.946 141.869 53.7504 141.911 52.5186C141.581 49.1505 141.581 49.1505 138.598 47.0373C137.603 46.4369 136.608 45.8365 135.583 45.2179C130.657 41.1272 128.139 37.5458 126.912 31.1884C126.619 25.613 127.803 20.7715 131.181 16.2929C135.597 11.6272 138.591 9.28105 144.998 8.32145C154.144 8.18908 160.751 11.117 165.343 19.2777Z" fill="#070707"/>
<path d="M150.914 98.6287C154.067 102.856 153.397 108.374 153.453 113.459C153.488 116.251 153.537 119.042 153.586 121.833C153.622 124.105 153.659 126.376 153.695 128.647C153.716 129.799 153.737 130.952 153.759 132.139C153.776 133.244 153.792 134.349 153.81 135.488C153.827 136.49 153.843 137.493 153.861 138.526C153.815 141.153 153.815 141.153 153.154 144.698C150.662 146.719 150.662 146.719 148.252 148.298C145.447 146.81 145.447 146.81 142.539 144.13C141.648 140.968 141.697 137.864 141.713 134.594C141.698 133.669 141.684 132.743 141.669 131.79C141.646 129.835 141.637 127.881 141.64 125.927C141.642 122.937 141.591 119.951 141.533 116.961C141.517 115.061 141.504 113.161 141.494 111.26C141.479 110.368 141.463 109.475 141.446 108.555C141.48 104.467 141.513 102.369 143.929 98.9635C146.727 97.022 148.02 96.7321 150.914 98.6287Z" fill="#080808"/>
<path d="M156.534 25.142C157.309 29.5947 157.203 31.3927 154.588 35.1122C151.332 37.5322 149.405 37.9647 145.388 38.0175C142.086 36.9646 140.492 35.0488 138.244 32.454C137.524 29.2466 137.131 27.1091 138.132 23.9695C140.175 21.3349 140.175 21.3349 143.016 18.9551C150.109 18.1855 152.697 19.0968 156.534 25.142Z" fill="#F4F4F4"/>
<path d="M249.1 81.4991C249.122 84.5509 248.854 86.5629 247.471 89.2805C244.718 91.6229 242.481 92.2543 238.921 92.8302C234.801 91.5242 232.574 90.4964 230.063 86.9473C229.171 83.3761 229.658 81.273 230.865 77.8271C233.126 74.9909 236.051 73.5475 239.517 72.7145C244.864 74.2799 247.615 76.0372 249.1 81.4991Z" fill="#F5F5F5"/>
<path d="M275.706 160.882C276.058 163.358 275.872 164.644 274.884 166.928C272.14 170.238 270.659 171.276 266.528 172.032C263.118 172.111 261.526 171.159 258.973 168.956C257.293 166.568 256.33 164.453 255.955 161.547C257.429 157.099 258.716 155.223 262.688 152.73C266.107 152.012 266.107 152.012 269.559 152.698C273.123 155.091 274.354 156.871 275.706 160.882Z" fill="#F8F8F8"/>
<path d="M32.62 81.508C32.6004 88.1365 34.8723 93.6853 39.3727 98.6049C44.9893 102.289 49.9684 103.967 56.6114 102.656C62.0043 101.124 64.0953 99.6833 67.4554 95.0886C77.635 99.807 87.8146 104.525 98.3028 109.387C98.3464 110.862 98.3901 112.337 98.4352 113.857C99.172 116.328 99.9541 118.723 100.827 121.144C101.074 121.837 101.321 122.53 101.576 123.244C102.1 124.704 102.629 126.163 103.16 127.621C103.967 129.846 104.748 132.079 105.529 134.313C106.043 135.735 106.559 137.155 107.076 138.576C107.305 139.241 107.534 139.906 107.77 140.592C109.379 144.893 111.034 147.06 115.14 149.155C117.314 148.923 117.314 148.923 119.123 147.695C120.472 145.918 120.472 145.918 121.226 143.158C120.611 139.994 119.447 137.063 118.286 134.063C117.962 133.189 117.639 132.316 117.305 131.416C116.267 128.627 115.205 125.847 114.144 123.067C113.441 121.184 112.74 119.3 112.04 117.416C110.753 113.977 109.466 110.537 108.156 107.107C107.893 106.417 107.631 105.727 107.36 105.016C105.529 100.808 101.687 99.7952 97.7505 98.0012C97.0074 97.6583 96.2643 97.3154 95.4986 96.9622C93.1204 95.866 90.7394 94.7762 88.3582 93.6865C86.7471 92.9452 85.1362 92.2036 83.5255 91.4615C79.5727 89.6415 75.6174 87.8272 71.6607 86.0159C71.9729 84.901 71.9729 84.901 72.2913 83.7636C73.0853 79.9615 72.4045 76.9861 70.843 73.5126C67.2407 68.0437 63.3342 64.7153 57.1014 62.7344C50.1194 61.7481 45.139 63.9619 39.3531 67.7342C35.4509 70.8456 33.343 76.673 32.62 81.508Z" fill="#060606"/>
<path d="M6.06457 165.483C6.92235 170.489 9.50695 174.549 13.0917 178.114C19.2711 181.649 25.2077 183.358 32.1967 181.578C37.1934 179.681 41.295 177.012 43.7791 172.188C45.926 167.323 46.4027 164.066 47.0137 158.46C58.1967 153.751 69.3797 149.042 80.9016 144.191C83.6995 149.528 83.6995 149.528 86.2183 154.995C88.9022 156.358 88.9022 156.358 91.7749 157.259C94.3816 156.161 94.3816 156.161 95.8495 153.811C96.9289 149.462 95.6332 146.591 93.8754 142.66C93.6023 141.969 93.3291 141.278 93.0477 140.566C92.6162 139.562 92.6162 139.562 92.1759 138.538C91.9176 137.937 91.6592 137.336 91.3931 136.716C89.1785 133.806 87.3897 132.701 83.954 131.397C80.5166 132.037 77.5295 133.497 74.3837 134.989C73.4767 135.39 72.5696 135.792 71.6351 136.206C68.7398 137.49 65.8614 138.807 62.9842 140.131C60.0996 141.45 57.2124 142.76 54.3135 144.047C52.5104 144.849 50.7156 145.669 48.9302 146.508C46.7002 147.503 44.6221 148.398 42.2459 148.959C39.6474 148.039 39.6474 148.039 37.9927 146.146C32.6115 143.239 27.8745 140.871 21.7217 142.352C10.7788 146.155 5.30054 153.869 6.06457 165.483Z" fill="#060606"/>
<path d="M42.8927 81.4991C42.8701 84.5509 43.1382 86.5629 44.5214 89.2805C47.2745 91.6229 49.5111 92.2543 53.0714 92.8302C57.1919 91.5242 59.4185 90.4964 61.9292 86.9473C62.8215 83.3761 62.3346 81.273 61.1278 77.8271C58.8664 74.9909 55.9412 73.5475 52.4756 72.7145C47.1281 74.2799 44.3776 76.0372 42.8927 81.4991Z" fill="#F5F5F5"/>
<path d="M16.2861 160.882C15.9346 163.358 16.1206 164.644 17.1088 166.928C19.8522 170.238 21.3336 171.276 25.4647 172.032C28.874 172.111 30.466 171.159 33.0196 168.956C34.6997 166.568 35.662 164.453 36.0378 161.547C34.5634 157.099 33.2764 155.223 29.3042 152.73C25.8849 152.012 25.8849 152.012 22.4335 152.698C18.8696 155.091 17.6381 156.871 16.2861 160.882Z" fill="#F8F8F8"/>
</svg>
